<svg version="1.1" viewBox="0 0 1200 1200" xmlns="http://www.w3.org/2000/svg">
 <g transform="matrix(4.49 0 0 4.49 63.8 64)" fill-rule="evenodd">
  <path d="m119 147c-14.7.017-26.6-12.3-26.6-27.4.01-15.2 11.9-27.5 26.6-27.5 14.7-.017 26.6 12.3 26.6 27.5-.0129 15.2-11.9 27.5-26.6 27.5" fill="#000" />
  <path d="m119 168a19.8 20.4 0 0119.8 20.4 19.8 20.4 0 01-19.8 20.4 19.8 20.4 0 01-19.8-20.4 19.8 20.4 0 0119.8-20.4zm0-138a19.8 20.4 0 0119.8 20.4 19.8 20.4 0 01-19.8 20.4 19.8 20.4 0 01-19.8-20.4 19.8 20.4 0 0119.8-20.4zm63 20.4h-24.7a38.3 39.6 0 00-76.6 0h-24.7c0-35.8 28.3-64.9 63-64.9 34.8 0 63 29.1 63 64.9zm-63 202c-34.8 0-63-29.1-63-64.9h24.7a38.3 39.6 0 0076.6 0h24.7c0 35.8-28.3 64.9-63 64.9zm-46.9-134a19.8 20.4 0 01-19.8 20.4 19.8 20.4 0 01-19.8-20.4 19.8 20.4 0 0119.8-20.4 19.8 20.4 0 0119.8 20.4zm133 0a19.8 20.4 0 01-19.8 20.4 19.8 20.4 0 01-19.8-20.4 19.8 20.4 0 0119.8-20.4 19.8 20.4 0 0119.8 20.4zm-19.8 64.9v-25.5c21.1 0 38.3-17.7 38.3-39.5 0-21.8-17.2-39.5-38.3-39.5v-25.5c34.7 0 63 29.1 63 64.9 0 35.8-28.3 64.9-63 64.9zm-133 0c-34.8.008-63-29.1-63-64.9 0-35.8 28.3-64.9 63-64.9v25.5a38.3 39.6 0 00-38.3 39.5c0 21.8 17.2 39.5 38.3 39.5v25.5z" fill="#000" />
 </g>
</svg>
