<svg xmlns="http://www.w3.org/2000/svg" width="114" height="32" viewBox="0 0 114 32">
    <g fill="none" fill-rule="evenodd">
        <path fill="#1C1A34" d="M48.407 8.083c.857 0 1.71.209 2.556.626.847.418 1.5.991 1.96 1.721V8.458h3.418l.063 16.21c0 1.23-.183 2.284-.549 3.16-.366.877-.883 1.597-1.552 2.16-.67.563-1.485.98-2.446 1.252-.962.27-2.06.407-3.293.407-1.234 0-2.3-.172-3.199-.517-.899-.344-1.651-.798-2.257-1.361a5.93 5.93 0 0 1-1.396-1.925 6.222 6.222 0 0 1-.549-2.238h3.45c.083.793.45 1.487 1.097 2.082.648.594 1.589.892 2.823.892 1.38 0 2.456-.308 3.23-.924.773-.615 1.16-1.612 1.16-2.989v-3.595c-.46.73-1.113 1.304-1.96 1.721-.847.417-1.699.626-2.556.626-1.108 0-2.122-.203-3.042-.61a7.116 7.116 0 0 1-2.367-1.675 7.783 7.783 0 0 1-1.537-2.441 7.872 7.872 0 0 1-.549-2.942c0-1.022.183-1.998.55-2.926a7.75 7.75 0 0 1 1.536-2.457 7.122 7.122 0 0 1 2.367-1.675c.92-.407 1.934-.61 3.042-.61zm55.48.313v7.543c0 .626.051 1.21.156 1.752.104.543.277 1.007.518 1.393.24.386.564.694.972.924.407.23.914.344 1.52.344 1.192 0 2.075-.423 2.65-1.268.575-.845.863-1.893.863-3.145V8.396h3.418V25.2c0 2.128-.607 3.734-1.819 4.82-1.192 1.064-2.927 1.595-5.206 1.595-.983 0-1.886-.187-2.712-.438a6.108 6.108 0 0 1-2.148-1.126 5.373 5.373 0 0 1-1.443-1.878c-.356-.751-.544-1.628-.564-2.63h3.45c.083 1.065.454 1.852 1.112 2.364.66.51 1.438.767 2.337.767.522 0 1.003-.053 1.442-.157a2.627 2.627 0 0 0 1.13-.563 2.74 2.74 0 0 0 .736-1.064c.178-.439.267-1.002.267-1.69v-4.254a4.48 4.48 0 0 1-1.913 1.8c-.816.407-1.767.61-2.854.61-1.066 0-1.96-.177-2.681-.532-.721-.354-1.291-.834-1.71-1.44a5.145 5.145 0 0 1-.736-1.815c-.136-.667-.204-1.502-.204-2.504v-8.67h3.418zm-18.053-.313c.773 0 1.5.125 2.18.376.678.25 1.27.594 1.77 1.032.502.438.9.96 1.193 1.565.292.606.438 1.263.438 1.972h-3.324c0-.689-.183-1.236-.548-1.643-.366-.407-.968-.61-1.804-.61-.585 0-1.081.136-1.49.407-.407.27-.61.668-.61 1.189 0 .313.083.569.25.767.167.198.418.375.753.532.334.156.753.323 1.254.5.502.178 1.087.392 1.757.642.501.188.992.386 1.473.595.481.209.91.47 1.286.782.376.313.674.689.894 1.127.22.438.329.991.329 1.659 0 .75-.152 1.408-.455 1.972a3.913 3.913 0 0 1-1.254 1.392 5.711 5.711 0 0 1-1.866.814 9.314 9.314 0 0 1-2.258.266 7.31 7.31 0 0 1-2.258-.344 5.821 5.821 0 0 1-1.897-1.017 4.882 4.882 0 0 1-1.317-1.66c-.324-.657-.486-1.413-.486-2.269h3.324c0 .96.267 1.633.8 2.02.533.386 1.207.578 2.022.578.67 0 1.234-.125 1.694-.375.46-.25.69-.689.69-1.315 0-.333-.095-.605-.283-.814-.188-.208-.47-.401-.846-.579-.376-.177-.847-.36-1.411-.547a53.917 53.917 0 0 1-2.007-.72 13.271 13.271 0 0 1-1.396-.61c-.429-.22-.8-.475-1.113-.767a2.866 2.866 0 0 1-.721-1.096c-.168-.438-.251-.97-.251-1.596 0-.688.146-1.293.439-1.815.292-.521.69-.965 1.191-1.33a5.252 5.252 0 0 1 1.741-.814 8.122 8.122 0 0 1 2.117-.266zm-23.035.375v14.585H59.38V8.458h3.418zm5.17 0l4.014 9.703 4.077-9.703h3.669l-6.617 14.585h-2.29L64.3 8.458h3.67zm29.5-7.323v21.908h-3.418V1.135h3.419zm-48.874 9.984c-.648 0-1.233.125-1.756.375-.522.25-.972.585-1.348 1.002a4.31 4.31 0 0 0-.862 1.471 5.316 5.316 0 0 0-.298 1.784c0 .626.099 1.22.298 1.784.198.563.486 1.054.862 1.47a4.29 4.29 0 0 0 1.348 1.002 4.01 4.01 0 0 0 1.756.376c.648 0 1.24-.125 1.772-.376.533-.25.988-.584 1.364-1.001a4.52 4.52 0 0 0 .878-1.471 5.09 5.09 0 0 0 .314-1.784 5.09 5.09 0 0 0-.314-1.784 4.525 4.525 0 0 0-.878-1.471 4.243 4.243 0 0 0-1.364-1.002 4.118 4.118 0 0 0-1.772-.375zm12.48-11.12c.7 0 1.294.243 1.779.727.484.484.727 1.076.727 1.776 0 .68-.243 1.262-.727 1.745-.485.484-1.079.726-1.78.726-.68 0-1.264-.242-1.748-.726a2.376 2.376 0 0 1-.728-1.745c0-.7.243-1.292.728-1.776A2.387 2.387 0 0 1 61.074 0zM15.854 20.344a4.525 4.525 0 0 1-4.53-4.52 4.525 4.525 0 0 1 4.53-4.522 4.525 4.525 0 0 1 4.53 4.521 4.525 4.525 0 0 1-4.53 4.521"/>
        <path fill="#FAC51D" d="M11.174 23.961a4.682 4.682 0 0 0 9.361 0h3.02c0 4.238-3.454 7.686-7.7 7.686-4.247 0-7.701-3.448-7.701-7.686h3.02zm4.68-2.411a2.414 2.414 0 0 1 2.416 2.411 2.414 2.414 0 0 1-2.416 2.411 2.414 2.414 0 0 1-2.416-2.41 2.414 2.414 0 0 1 2.416-2.412zm8.154-13.412c4.246 0 7.7 3.447 7.7 7.685 0 4.238-3.454 7.686-7.7 7.686v-3.014c2.58 0 4.68-2.096 4.68-4.672 0-2.575-2.1-4.671-4.68-4.671V8.138zm-16.307 0v3.014a4.682 4.682 0 0 0-4.681 4.671c0 2.576 2.1 4.672 4.68 4.672v3.014c-4.246 0-7.7-3.448-7.7-7.686 0-4.238 3.454-7.685 7.7-7.685zm0 5.274a2.414 2.414 0 0 1 2.416 2.411A2.414 2.414 0 0 1 7.7 18.235a2.414 2.414 0 0 1-2.416-2.412 2.414 2.414 0 0 1 2.416-2.41zm16.307 0a2.414 2.414 0 0 1 2.416 2.411 2.414 2.414 0 0 1-2.416 2.412 2.414 2.414 0 0 1-2.416-2.412 2.414 2.414 0 0 1 2.416-2.41zm-8.154-8.138a2.414 2.414 0 0 1 2.416 2.412 2.414 2.414 0 0 1-2.416 2.41 2.414 2.414 0 0 1-2.416-2.41 2.414 2.414 0 0 1 2.416-2.412zm0-5.274c4.247 0 7.701 3.448 7.701 7.686h-3.02a4.682 4.682 0 0 0-9.361 0h-3.02c0-4.238 3.454-7.686 7.7-7.686z"/>
    </g>
</svg>
